<?xml version="1.0" encoding="UTF-8"?>
<svg id="Calque_1" xmlns="http://www.w3.org/2000/svg" viewBox="0 0 1931.93 511.85">
  <defs>
    <style>
      .cls-1 {
        fill: #ccc;
      }
    </style>
  </defs>
  <g>
    <path class="cls-1" d="M235.21,491.42s119.21-10.06,169.51-140.16c0,0,8.84,7.95,26.49,21.39,52.92,40.3,195.54,79.67,295.23-64.59,0,0,5.23,93.65-63.19,152.87-35.49,30.72-125.11,86.62-236.1,18.01,0,0-96.07,64.84-191.95,12.48Z"/>
    <path class="cls-1" d="M160.59,369.32C76.09,426.33,0,402.47,0,402.47c84.18,79.46,197.3,47.89,197.3,47.89,97.18-34.02,123.12-88.22,136.12-124.53,26.97-75.31,18.48-121.5,61.83-175.21,34.08-42.21,73.22-44.48,93.86-41.83,46.31,5.96,86.06,56.85,67.4,105.31,0,0-49.79-46.09-99.85,3.97-29.08,29.08-22.43,96.24,38.68,113.12,40.34,11.14,125.16.86,156.52-86.81,21.68-60.6,13.01-177.11-108.68-230.93-49.81-22.03-106.9-14.47-144.57,4.39-63.3,31.69-109.43,97.03-136.93,202.66-15.28,58.68-32.25,102.36-101.09,148.81Z"/>
  </g>
  <g>
    <path class="cls-1" d="M1089.05,239.16h-40.05l-45.42,212.92h-68.37l45.42-212.92h-37.6l9.77-45.42h37.12l6.84-31.74c9.77-45.42,35.65-65.93,83.51-65.93,9.77,0,14.65,0,37.6,1.47l-10.74,51.28c-12.21-1.47-15.63-1.95-20.51-1.95-12.7,0-19.53,6.84-22.46,21l-5.86,25.88h40.53l-9.77,45.42Z"/>
    <path class="cls-1" d="M1152.54,452.09h-68.37l75.7-356.01h68.37l-75.7,356.01Z"/>
    <path class="cls-1" d="M1496.83,281.65c0,42.49-15.14,90.83-38.58,121.6-29.79,39.56-72.28,60.07-125.02,60.07-64.95,0-105.97-38.09-105.97-97.67,0-42,15.14-90.35,38.58-121.6,28.81-38.58,72.28-60.07,123.07-60.07,66.91,0,107.93,37.12,107.93,97.67ZM1297.09,351.98c0,34.67,19.05,56.65,48.35,56.65,25.39,0,47.86-15.14,63-42.49,11.72-20.51,18.56-46.39,18.56-70.32,0-35.16-18.56-57.14-48.83-57.14-44.44,0-81.07,51.28-81.07,113.3Z"/>
    <path class="cls-1" d="M1676.05,239.16h-38.09l-30.28,143.58c-1.95,8.3-2.93,14.65-2.93,16.6,0,7.81,6.84,12.21,18.56,12.21,5.37,0,9.28-.49,16.12-1.46l-9.77,47.86c-13.67,3.91-25.39,5.37-41.51,5.37-35.65,0-55.18-14.65-55.18-42,0-6.35.98-13.19,2.44-20.02l34.19-162.13h-33.7l9.77-45.42h33.7l15.14-70.81h68.37l-15.14,70.81h38.09l-9.77,45.42Z"/>
    <path class="cls-1" d="M1863.57,273.35c.98-4.4,1.46-6.35,1.46-9.28,0-16.12-16.12-25.39-42.98-25.39s-42.97,10.26-42.97,25.88c0,9.77,6.84,14.65,31.74,21.98l46.88,13.67c40.53,12.21,59.58,31.25,59.58,60.56,0,62.51-52.74,102.55-135.76,102.55-30.28,0-53.23-4.88-72.28-16.12-21.49-12.21-35.65-35.16-35.65-57.14,0-4.39.49-7.81,1.95-14.65h66.91c1.46,21.98,19.05,33.21,51.77,33.21,29.79,0,50.79-11.23,50.79-26.86,0-11.23-6.35-15.63-37.12-25.39l-38.58-12.21c-42.98-14.16-63-32.72-63-60.56,0-24.42,13.67-52.25,34.67-70.81,21-18.56,53.72-28.81,92.3-28.81,61.53,0,98.65,26.37,98.65,70.81,0,5.86-.49,9.77-2.44,18.56h-65.93Z"/>
  </g>
</svg>