<?xml version="1.0" encoding="UTF-8"?>
<svg id="Calque_1" xmlns="http://www.w3.org/2000/svg" viewBox="0 0 714.39 511.85">
  <defs>
    <style>
      .cls-1 {
        fill: #ccc;
      }
    </style>
  </defs>
  <path class="cls-1" d="M223.05,491.42s119.21-10.06,169.51-140.16c0,0,8.84,7.95,26.49,21.39,52.92,40.3,195.54,79.67,295.23-64.59,0,0,5.23,93.65-63.19,152.87-35.49,30.72-125.11,86.62-236.1,18.01,0,0-96.07,64.84-191.95,12.48Z"/>
  <path class="cls-1" d="M161.39,371.67C76.74,430.13,0,405.87,0,405.87c84.18,79.46,194.15,44.13,194.15,44.13,97.18-34.02,123.12-88.22,136.12-124.53,26.97-75.31,18.48-121.5,61.83-175.21,34.08-42.21,71.35-43.63,92.15-43.49,41.78.27,112.72,40.98,69.1,106.97,0,0-52.05-55.75-104.29.65-31.45,33.96-17.07,96.48,43.12,116.44,45.02,14.93,128.41,7.94,158.85-86.41,19.76-61.25,15.39-177.87-112.75-229.24-139.32-55.84-263.59,46.17-295.92,241.4-4.15,25.05-13.29,68.32-80.98,115.07Z"/>
</svg>