<?xml version="1.0" encoding="UTF-8"?>
<svg id="CHEST" xmlns="http://www.w3.org/2000/svg" xmlns:xlink="http://www.w3.org/1999/xlink" viewBox="0 0 201.51 309.22">
  <defs>
    <style>
      .cls-1 {
        fill: #daae7b;
      }

      .cls-2 {
        fill: #55ff50;
      }

      .cls-3 {
        fill: none;
      }

      .cls-4 {
        fill: #1b3765;
      }

      .cls-5 {
        fill: url(#linear-gradient);
      }
    </style>
    <linearGradient id="linear-gradient" x1="-8.13" y1="82.31" x2="220.18" y2="214.13" gradientUnits="userSpaceOnUse">
      <stop offset="0" stop-color="#c93534"/>
      <stop offset=".99" stop-color="#8e1a1d"/>
    </linearGradient>
  </defs>
  <g>
    <path class="cls-5" d="M0,246.47V89.35C0,45.88,35.24,10.64,78.72,10.64h44.08c43.47,0,78.72,35.24,78.72,78.72v157.11"/>
    <rect class="cls-4" x=".04" y="246.47" width="201.43" height="62.76"/>
    <path class="cls-1" d="M133.07,10.64c0,5.87-4.76,10.64-10.63,10.64h-43.37c-5.87,0-10.64-4.76-10.64-10.64h0c0-5.87,4.77-10.64,10.64-10.64h43.37c5.87,0,10.63,4.76,10.63,10.64h0Z"/>
  </g>
  <path class="cls-3" d="M201.51,89.35v157.11h-.04v62.76H.04v-62.76H0V89.35C0,49.35,29.83,16.32,68.46,11.29c-.01-.22-.02-.44-.02-.66,0-2.93,1.19-5.59,3.12-7.52C73.48,1.19,76.14,0,79.08,0h43.36c5.87,0,10.64,4.76,10.64,10.63,0,.22-.01.44-.02.66,38.62,5.03,68.45,38.06,68.45,78.06Z"/>
  <path class="cls-2" d="M122.06,11l-.45,9.89,10.03,1.31c33.56,4.37,58.87,33.24,58.87,67.15v146.11h-.04v62.76H11.04v-51.76l-.04-11V89.35c0-33.91,25.31-62.78,58.88-67.15l10.03-1.31-.45-9.89h42.6M122.44,0h-43.36c-2.94,0-5.6,1.19-7.52,3.11-1.93,1.93-3.12,4.59-3.12,7.52,0,.22.01.44.02.66C29.83,16.32,0,49.35,0,89.35v157.11h.04v62.76h201.43v-62.76h.04V89.35c0-40-29.83-73.03-68.45-78.06.01-.22.02-.44.02-.66C133.08,4.76,128.31,0,122.44,0h0Z"/>
</svg>