<?xml version="1.0" encoding="UTF-8"?>
<svg id="HEAD" xmlns="http://www.w3.org/2000/svg" xmlns:xlink="http://www.w3.org/1999/xlink" viewBox="0 0 295.99 311.55">
  <defs>
    <style>
      .cls-1 {
        fill: #f9c989;
      }

      .cls-2 {
        fill: #4f3d2a;
      }

      .cls-3 {
        fill: #352425;
      }

      .cls-4 {
        fill: url(#linear-gradient);
      }

      .cls-5 {
        fill: #f69c8b;
      }

      .cls-6 {
        fill: #e4b680;
      }

      .cls-7 {
        fill: #59452e;
      }
    </style>
    <linearGradient id="linear-gradient" x1="205.92" y1="-30.34" x2="93.16" y2="164.96" gradientUnits="userSpaceOnUse">
      <stop offset="0" stop-color="#83694c"/>
      <stop offset=".99" stop-color="#59452e"/>
    </linearGradient>
  </defs>
  <path class="cls-2" d="M274.99,115.92c0,28.32-22.96,51.28-51.28,51.28h-86.36c-28.32,0-51.28-22.96-51.28-51.28h0c0-28.32,22.96-51.28,51.28-51.28h86.36c28.32,0,51.28,22.96,51.28,51.28h0Z"/>
  <path class="cls-2" d="M210.36,135.42c0,28.32-22.96,51.28-51.28,51.28h-86.36c-28.32,0-51.28-22.96-51.28-51.28h0c0-28.32,22.96-51.28,51.28-51.28h86.36c28.32,0,51.28,22.96,51.28,51.28h0Z"/>
  <path class="cls-1" d="M253.47,206.3c0,58.13-47.12,105.25-105.25,105.25h0c-58.13,0-105.25-47.12-105.25-105.25v-48.58c0-58.13,47.12-105.25,105.25-105.25h0c58.13,0,105.25,47.12,105.25,105.25v48.58Z"/>
  <path class="cls-6" d="M157.88,205.4c0,5.34-4.33,9.67-9.67,9.67h0c-5.34,0-9.67-4.33-9.67-9.67v-21.72c0-5.34,4.33-9.67,9.67-9.67h0c5.34,0,9.67,4.33,9.67,9.67v21.72Z"/>
  <g>
    <path class="cls-3" d="M186.59,178.8c0,7.42,6.01,13.43,13.43,13.43s13.43-6.01,13.43-13.43-6.01-13.43-13.43-13.43-13.43,6.01-13.43,13.43Z"/>
    <path class="cls-3" d="M82.99,178.8c0,7.42,6.01,13.43,13.43,13.43s13.43-6.01,13.43-13.43-6.01-13.43-13.43-13.43-13.43,6.01-13.43,13.43Z"/>
    <path class="cls-7" d="M115.9,153.75c0,2.65-2.15,4.8-4.8,4.8h-29.35c-2.65,0-4.8-2.15-4.8-4.8h0c0-2.65,2.15-4.8,4.8-4.8h29.35c2.65,0,4.8,2.15,4.8,4.8h0Z"/>
    <path class="cls-7" d="M219.49,153.75c0,2.65-2.15,4.8-4.8,4.8h-29.35c-2.65,0-4.81-2.15-4.81-4.8h0c0-2.65,2.15-4.8,4.81-4.8h29.35c2.65,0,4.8,2.15,4.8,4.8h0Z"/>
  </g>
  <g>
    <path class="cls-1" d="M32.59,173.15c0-7.89,5.39-14.5,12.69-16.4v-11.39c-13.51,2.07-23.87,13.7-23.87,27.79s10.36,25.72,23.87,27.79v-11.39c-7.29-1.9-12.69-8.51-12.69-16.4Z"/>
    <path class="cls-5" d="M32.59,173.15c0,7.89,5.39,14.5,12.69,16.4v-32.8c-7.29,1.9-12.69,8.51-12.69,16.4Z"/>
  </g>
  <g>
    <path class="cls-1" d="M264.4,170.3c0-7.89-5.39-14.5-12.69-16.4v-11.39c13.51,2.07,23.87,13.7,23.87,27.79s-10.36,25.72-23.87,27.79v-11.39c7.29-1.9,12.69-8.51,12.69-16.4Z"/>
    <path class="cls-5" d="M264.4,170.3c0,7.89-5.39,14.5-12.69,16.4v-32.8c7.29,1.9,12.69,8.51,12.69,16.4Z"/>
  </g>
  <path class="cls-4" d="M295.99,51.28c0,28.33-22.96,51.28-51.28,51.28h-31.42c-1.11,9.12-8.88,16.18-18.29,16.18h-51.85c-7.53,6.58-17.36,10.55-28.13,10.55H42.86C19.18,129.28,0,110.1,0,86.42c0-11.84,4.8-22.55,12.55-30.3,7.76-7.76,18.46-12.55,30.3-12.55h14.03c1.68-11.07,6.89-20.99,14.45-28.55C80.63,5.74,93.44,0,107.6,0h137.12c28.32,0,51.28,22.96,51.28,51.28Z"/>
</svg>