<?xml version="1.0" encoding="UTF-8"?>
<svg id="HEAD" xmlns="http://www.w3.org/2000/svg" xmlns:xlink="http://www.w3.org/1999/xlink" viewBox="0 0 295.99 311.55">
  <defs>
    <style>
      .cls-1 {
        fill: #f9c989;
      }

      .cls-2 {
        fill: #ff5252;
      }

      .cls-3 {
        fill: #4f3d2a;
      }

      .cls-4 {
        fill: #352425;
      }

      .cls-5 {
        fill: url(#linear-gradient);
      }

      .cls-6 {
        fill: #f69c8b;
      }

      .cls-7 {
        fill: #e4b680;
      }

      .cls-8 {
        fill: #59452e;
      }
    </style>
    <linearGradient id="linear-gradient" x1="205.92" y1="-30.34" x2="93.16" y2="164.96" gradientUnits="userSpaceOnUse">
      <stop offset="0" stop-color="#83694c"/>
      <stop offset=".99" stop-color="#59452e"/>
    </linearGradient>
  </defs>
  <g>
    <path class="cls-3" d="M274.99,115.92c0,28.32-22.96,51.28-51.28,51.28h-86.36c-28.32,0-51.28-22.96-51.28-51.28h0c0-28.32,22.96-51.28,51.28-51.28h86.36c28.32,0,51.28,22.96,51.28,51.28h0Z"/>
    <path class="cls-3" d="M210.36,135.42c0,28.32-22.96,51.28-51.28,51.28h-86.36c-28.32,0-51.28-22.96-51.28-51.28h0c0-28.32,22.96-51.28,51.28-51.28h86.36c28.32,0,51.28,22.96,51.28,51.28h0Z"/>
    <path class="cls-1" d="M253.47,206.3c0,58.13-47.12,105.25-105.25,105.25h0c-58.13,0-105.25-47.12-105.25-105.25v-48.58c0-58.13,47.12-105.25,105.25-105.25h0c58.13,0,105.25,47.12,105.25,105.25v48.58Z"/>
    <path class="cls-7" d="M157.88,205.4c0,5.34-4.33,9.67-9.67,9.67h0c-5.34,0-9.67-4.33-9.67-9.67v-21.72c0-5.34,4.33-9.67,9.67-9.67h0c5.34,0,9.67,4.33,9.67,9.67v21.72Z"/>
    <g>
      <path class="cls-4" d="M186.59,178.8c0,7.42,6.01,13.43,13.43,13.43s13.43-6.01,13.43-13.43-6.01-13.43-13.43-13.43-13.43,6.01-13.43,13.43Z"/>
      <path class="cls-4" d="M82.99,178.8c0,7.42,6.01,13.43,13.43,13.43s13.43-6.01,13.43-13.43-6.01-13.43-13.43-13.43-13.43,6.01-13.43,13.43Z"/>
      <path class="cls-8" d="M115.9,153.75c0,2.65-2.15,4.8-4.8,4.8h-29.35c-2.65,0-4.8-2.15-4.8-4.8h0c0-2.65,2.15-4.8,4.8-4.8h29.35c2.65,0,4.8,2.15,4.8,4.8h0Z"/>
      <path class="cls-8" d="M219.49,153.75c0,2.65-2.15,4.8-4.8,4.8h-29.35c-2.65,0-4.81-2.15-4.81-4.8h0c0-2.65,2.15-4.8,4.81-4.8h29.35c2.65,0,4.8,2.15,4.8,4.8h0Z"/>
    </g>
    <g>
      <path class="cls-1" d="M32.59,173.15c0-7.89,5.39-14.5,12.69-16.4v-11.39c-13.51,2.07-23.87,13.7-23.87,27.79s10.36,25.72,23.87,27.79v-11.39c-7.29-1.9-12.69-8.51-12.69-16.4Z"/>
      <path class="cls-6" d="M32.59,173.15c0,7.89,5.39,14.5,12.69,16.4v-32.8c-7.29,1.9-12.69,8.51-12.69,16.4Z"/>
    </g>
    <g>
      <path class="cls-1" d="M264.4,170.3c0-7.89-5.39-14.5-12.69-16.4v-11.39c13.51,2.07,23.87,13.7,23.87,27.79s-10.36,25.72-23.87,27.79v-11.39c7.29-1.9,12.69-8.51,12.69-16.4Z"/>
      <path class="cls-6" d="M264.4,170.3c0,7.89-5.39,14.5-12.69,16.4v-32.8c7.29,1.9,12.69,8.51,12.69,16.4Z"/>
    </g>
    <path class="cls-5" d="M295.99,51.28c0,28.33-22.96,51.28-51.28,51.28h-31.42c-1.11,9.12-8.88,16.18-18.29,16.18h-51.85c-7.53,6.58-17.36,10.55-28.13,10.55H42.86C19.18,129.28,0,110.1,0,86.42,0,74.58,4.8,63.88,12.55,56.12c7.76-7.76,18.46-12.55,30.3-12.55h14.03c1.68-11.07,6.89-20.99,14.45-28.55C80.63,5.74,93.44,0,107.6,0h137.12c28.32,0,51.28,22.96,51.28,51.28Z"/>
  </g>
  <path class="cls-2" d="M244.72,11c22.21,0,40.28,18.07,40.28,40.27,0,14.2-7.6,27.5-19.84,34.71l-8.39,4.95,3.9,8.93c2.21,5.06,3.33,10.46,3.33,16.06,0,9.13-2.98,17.73-8.61,24.89l-7.06,8.97,9.23,6.72c4.46,3.25,7.02,8.28,7.02,13.8,0,7.98-5.66,15.01-13.45,16.7l-8.66,1.88v17.4c0,51.97-42.28,94.25-94.25,94.25-25.18,0-48.85-9.8-66.64-27.61-17.8-17.79-27.61-41.46-27.61-66.64v-14.5l-8.44-2.02c-7.73-1.85-13.12-8.69-13.12-16.63,0-3.47,1.03-6.79,2.98-9.62l3.6-5.22-2.71-5.73c-2.54-5.37-3.83-11.14-3.83-17.15,0-2.99.32-5.94.96-8.78l1.84-8.17-7.38-3.95c-10.4-5.56-16.86-16.33-16.86-28.11,0-8.51,3.31-16.51,9.34-22.53,6.01-6.02,14.01-9.33,22.52-9.33h23.48l1.43-9.34c1.3-8.55,5.23-16.3,11.37-22.43,7.6-7.61,17.71-11.79,28.47-11.79h137.12M244.72,0H107.6C93.45,0,80.63,5.73,71.35,15.02c-7.56,7.55-12.77,17.47-14.46,28.54h-14.03c-11.84,0-22.55,4.8-30.3,12.56C4.8,63.87,0,74.58,0,86.42,0,102.79,9.18,117.02,22.67,124.23c-.81,3.6-1.23,7.35-1.23,11.19,0,7.82,1.75,15.23,4.89,21.86-3.11,4.51-4.92,9.97-4.92,15.86,0,13.28,9.2,24.37,21.56,27.33v5.82c0,29.07,11.78,55.38,30.83,74.42,19.04,19.05,45.36,30.83,74.42,30.83,58.13,0,105.25-47.12,105.25-105.25v-8.54c12.64-2.75,22.11-13.98,22.11-27.45,0-9.33-4.54-17.59-11.54-22.69,6.86-8.72,10.96-19.73,10.96-31.69,0-7.27-1.51-14.19-4.25-20.46,15.11-8.91,25.25-25.36,25.25-44.19C296,22.96,273.04,0,244.72,0h0Z"/>
</svg>