<?xml version="1.0" encoding="UTF-8"?>
<svg id="L_ARM" xmlns="http://www.w3.org/2000/svg" viewBox="0 0 74.75 344.12">
  <defs>
    <style>
      .cls-1 {
        fill: #faba96;
      }

      .cls-2 {
        fill: #912f2f;
      }
    </style>
  </defs>
  <path class="cls-1" d="M0,233.5v-120.2c0-20.4,16.54-36.94,36.94-36.94,20.4,0,36.94,16.54,36.94,36.94v120.2H0Z"/>
  <path class="cls-1" d="M73.89,163.4V36.93C73.89,16.53,57.35,0,36.95,0,16.55,0,0,16.53,0,36.93v126.46c0,20.4,16.55,36.95,36.95,36.95s36.94-16.55,36.94-36.95Z"/>
  <path class="cls-2" d="M0,233.5v73.26c0,20.64,16.73,37.37,37.37,37.37h0c20.64,0,37.37-16.73,37.37-37.37v-73.26"/>
</svg>