<?xml version="1.0" encoding="UTF-8"?>
<svg id="R_ARM" xmlns="http://www.w3.org/2000/svg" viewBox="0 0 74.75 344.12">
  <defs>
    <style>
      .cls-1 {
        fill: #f9c989;
      }

      .cls-2 {
        fill: #912f2f;
      }

      .cls-3 {
        fill: #ff5252;
      }
    </style>
  </defs>
  <g>
    <path class="cls-1" d="M74.74,233.5v-120.2c0-20.4-16.54-36.94-36.94-36.94-20.4,0-36.94,16.54-36.94,36.94v120.2s73.88,0,73.88,0Z"/>
    <path class="cls-1" d="M.86,163.4V36.93C.86,16.53,17.39,0,37.8,0c20.4,0,36.95,16.53,36.95,36.93v126.46c0,20.4-16.55,36.95-36.95,36.95-20.4,0-36.94-16.55-36.94-36.95Z"/>
    <path class="cls-2" d="M74.74,233.5v73.26c0,20.64-16.73,37.37-37.37,37.37h0C16.73,344.12,0,327.39,0,306.75v-73.26"/>
  </g>
  <path class="cls-3" d="M37.8,11c14.31,0,25.95,11.63,25.95,25.93v269.82c0,14.54-11.83,26.37-26.37,26.37-7.05,0-13.67-2.74-18.65-7.71-4.99-4.99-7.73-11.62-7.73-18.66v-62.26h.86V36.93c0-14.3,11.64-25.93,25.94-25.93M37.8,0C17.4,0,.86,16.53.86,36.93v196.56H0v73.26c0,10.32,4.19,19.66,10.95,26.43,6.76,6.76,16.11,10.94,26.43,10.94,20.63,0,37.37-16.73,37.37-37.37V36.93C74.75,16.53,58.2,0,37.8,0h0Z"/>
</svg>