<?xml version="1.0" encoding="UTF-8"?>
<svg id="R_LEG" xmlns="http://www.w3.org/2000/svg" viewBox="0 0 132.94 300.88">
  <defs>
    <style>
      .cls-1 {
        fill: #f9c989;
      }

      .cls-2 {
        fill: #55ff50;
      }

      .cls-3 {
        fill: #1b3765;
      }
    </style>
  </defs>
  <g>
    <g>
      <path class="cls-3" d="M72.77,110.19c0-20.09-16.29-36.38-36.39-36.38h0C16.29,73.81,0,90.1,0,110.19v134.28c0,20.1,16.29,36.39,36.39,36.39h0c20.09,0,36.39-16.29,36.39-36.39V110.19Z"/>
      <path class="cls-1" d="M132.94,300.88H0v-60.78h72.77v.62c33.22,0,60.17,26.93,60.17,60.16Z"/>
    </g>
    <path class="cls-3" d="M72.77,36.39C72.77,16.29,56.48,0,36.39,0h0C16.29,0,0,16.29,0,36.39v134.27C0,190.76,16.29,207.05,36.39,207.05h0c20.09,0,36.39-16.29,36.39-36.39V36.39Z"/>
  </g>
  <rect class="cls-1" x="0" y="103.52" width="72.77" height="136.58"/>
  <path class="cls-2" d="M36.39,11c14,0,25.39,11.39,25.39,25.39v215.33h11c23.33,0,42.91,16.33,47.92,38.16H11V36.39c0-6.79,2.64-13.16,7.44-17.96,4.79-4.79,11.16-7.43,17.95-7.43M36.39,0C26.34,0,17.24,4.07,10.66,10.66,4.07,17.24,0,26.34,0,36.39v264.49h132.94c0-33.24-26.94-60.16-60.16-60.16V36.39C72.78,16.29,56.48,0,36.39,0h0Z"/>
</svg>