<?xml version="1.0" encoding="UTF-8"?>
<svg id="L_LEG" xmlns="http://www.w3.org/2000/svg" viewBox="0 0 132.94 300.88">
  <defs>
    <style>
      .cls-1 {
        fill: #1b3765;
      }

      .cls-2 {
        fill: #353535;
      }
    </style>
  </defs>
  <g>
    <path class="cls-1" d="M60.17,110.19c0-20.09,16.29-36.38,36.39-36.38h0c20.1,0,36.39,16.29,36.39,36.38v134.28c0,20.1-16.29,36.39-36.39,36.39h0c-20.09,0-36.39-16.29-36.39-36.39V110.19Z"/>
    <path class="cls-2" d="M0,300.88h132.94s0-60.78,0-60.78H60.17s0,.62,0,.62C26.94,240.72,0,267.65,0,300.88Z"/>
  </g>
  <path class="cls-1" d="M60.17,36.39C60.17,16.29,76.46,0,96.55,0h0c20.1,0,36.39,16.29,36.39,36.39v134.27c0,20.1-16.29,36.39-36.39,36.39h0c-20.09,0-36.39-16.29-36.39-36.39V36.39Z"/>
</svg>