<?xml version="1.0" encoding="UTF-8"?>
<svg id="L_ARM" xmlns="http://www.w3.org/2000/svg" viewBox="0 0 74.75 344.12">
  <defs>
    <style>
      .cls-1 {
        fill: #f9c989;
      }

      .cls-2 {
        fill: #912f2f;
      }

      .cls-3 {
        fill: #ff5252;
      }
    </style>
  </defs>
  <g>
    <path class="cls-1" d="M0,233.5v-120.2c0-20.4,16.54-36.94,36.94-36.94,20.4,0,36.94,16.54,36.94,36.94v120.2H0Z"/>
    <path class="cls-1" d="M73.89,163.4V36.93C73.89,16.53,57.35,0,36.95,0,16.55,0,0,16.53,0,36.93v126.46c0,20.4,16.55,36.95,36.95,36.95s36.94-16.55,36.94-36.95Z"/>
    <path class="cls-2" d="M0,233.5v73.26c0,20.64,16.73,37.37,37.37,37.37h0c20.64,0,37.37-16.73,37.37-37.37v-73.26"/>
  </g>
  <path class="cls-3" d="M36.95,11c14.3,0,25.94,11.63,25.94,25.93v207.56h.86v62.26c0,7.04-2.74,13.67-7.73,18.65-4.98,4.98-11.6,7.72-18.64,7.72-14.54,0-26.37-11.83-26.37-26.37v-142.75c-.01-.19-.01-.4-.01-.6V36.93c0-14.3,11.64-25.93,25.95-25.93M36.95,0C16.55,0,0,16.53,0,36.93v126.47c0,.32,0,.64.01.95v142.4c0,20.64,16.73,37.37,37.37,37.37,10.32,0,19.66-4.18,26.42-10.94,6.77-6.77,10.95-16.11,10.95-26.43v-73.26h-.86V36.93C73.89,16.53,57.36,0,36.95,0h0Z"/>
</svg>