<?xml version="1.0" encoding="UTF-8"?>
<svg id="R_ARM" xmlns="http://www.w3.org/2000/svg" viewBox="0 0 74.75 344.12">
  <defs>
    <style>
      .cls-1 {
        fill: #f9c989;
      }

      .cls-2 {
        fill: #912f2f;
      }
    </style>
  </defs>
  <path class="cls-1" d="M74.74,233.5v-120.2c0-20.4-16.54-36.94-36.94-36.94-20.4,0-36.94,16.54-36.94,36.94v120.2s73.88,0,73.88,0Z"/>
  <path class="cls-1" d="M.86,163.4V36.93C.86,16.53,17.39,0,37.8,0c20.4,0,36.95,16.53,36.95,36.93v126.46c0,20.4-16.55,36.95-36.95,36.95-20.4,0-36.94-16.55-36.94-36.95Z"/>
  <path class="cls-2" d="M74.74,233.5v73.26c0,20.64-16.73,37.37-37.37,37.37h0C16.73,344.12,0,327.39,0,306.75v-73.26"/>
</svg>