<?xml version="1.0" encoding="UTF-8"?>
<svg id="L_LEG" xmlns="http://www.w3.org/2000/svg" viewBox="0 0 132.94 300.88">
  <defs>
    <style>
      .cls-1 {
        fill: #f9c989;
      }

      .cls-2 {
        fill: #55ff50;
      }

      .cls-3 {
        fill: #1b3765;
      }
    </style>
  </defs>
  <g>
    <g>
      <path class="cls-3" d="M60.17,110.19c0-20.09,16.29-36.38,36.39-36.38h0c20.1,0,36.39,16.29,36.39,36.38v134.28c0,20.1-16.29,36.39-36.39,36.39h0c-20.09,0-36.39-16.29-36.39-36.39V110.19Z"/>
      <path class="cls-1" d="M0,300.88h132.94s0-60.78,0-60.78H60.17s0,.62,0,.62C26.94,240.72,0,267.65,0,300.88Z"/>
    </g>
    <path class="cls-3" d="M60.17,36.39C60.17,16.29,76.46,0,96.55,0h0c20.1,0,36.39,16.29,36.39,36.39v134.27c0,20.1-16.29,36.39-36.39,36.39h0c-20.09,0-36.39-16.29-36.39-36.39V36.39Z"/>
  </g>
  <rect class="cls-1" x="60.17" y="103.52" width="72.77" height="136.58"/>
  <path class="cls-2" d="M96.56,11c6.78,0,13.15,2.64,17.95,7.44,4.79,4.79,7.43,11.16,7.43,17.95v253.49H12.24c5.01-21.83,24.6-38.16,47.93-38.16h11V36.39c0-14,11.39-25.39,25.39-25.39M96.56,0C76.46,0,60.17,16.29,60.17,36.39v204.33C26.95,240.72,0,267.64,0,300.88h132.94V36.39c0-10.05-4.07-19.15-10.66-25.73C115.7,4.07,106.61,0,96.56,0h0Z"/>
</svg>