<?xml version="1.0" encoding="UTF-8"?>
<svg id="R_LEG" xmlns="http://www.w3.org/2000/svg" viewBox="0 0 132.94 300.88">
  <defs>
    <style>
      .cls-1 {
        fill: #1b3765;
      }

      .cls-2 {
        fill: #353535;
      }
    </style>
  </defs>
  <g>
    <path class="cls-1" d="M72.77,110.19c0-20.09-16.29-36.38-36.39-36.38h0C16.29,73.81,0,90.1,0,110.19v134.28c0,20.1,16.29,36.39,36.39,36.39h0c20.09,0,36.39-16.29,36.39-36.39V110.19Z"/>
    <path class="cls-2" d="M132.94,300.88H0v-60.78h72.77v.62c33.22,0,60.17,26.93,60.17,60.16Z"/>
  </g>
  <path class="cls-1" d="M72.77,36.39C72.77,16.29,56.48,0,36.39,0h0C16.29,0,0,16.29,0,36.39v134.27c0,20.1,16.29,36.39,36.39,36.39h0c20.09,0,36.39-16.29,36.39-36.39V36.39Z"/>
</svg>