<?xml version="1.0" encoding="UTF-8"?>
<svg id="Calque_1" data-name="Calque 1" xmlns="http://www.w3.org/2000/svg" viewBox="0 0 350.89 403.21">
  <defs>
    <style>
      .cls-1 {
        fill: #000;
        stroke-width: 0px;
      }

      .cls-2 {
        fill: #fff;
        stroke: #000;
        stroke-linecap: round;
        stroke-miterlimit: 10;
        stroke-width: 19.74px;
      }
    </style>
  </defs>
  <path class="cls-1" d="M175.45,72.06c41.59,0,80.69,16.2,110.1,45.6,29.41,29.41,45.6,68.51,45.6,110.1s-16.2,80.69-45.6,110.1c-29.41,29.41-68.51,45.6-110.1,45.6s-80.69-16.2-110.1-45.6c-29.41-29.41-45.6-68.51-45.6-110.1s16.2-80.69,45.6-110.1c29.41-29.41,68.51-45.6,110.1-45.6M175.45,52.32C78.55,52.32,0,130.87,0,227.76s78.55,175.45,175.45,175.45,175.45-78.55,175.45-175.45S272.34,52.32,175.45,52.32h0Z"/>
  <line class="cls-2" x1="175.45" y1="227.76" x2="213.89" y2="140.25"/>
  <rect class="cls-1" x="127.94" width="94.77" height="27.81" rx="8.95" ry="8.95"/>
  <path class="cls-1" d="M158.41,35.75h33.84c4.94,0,8.95,4.01,8.95,8.95v16.41c0,5.2-4.22,9.43-9.43,9.43h-32.89c-5.2,0-9.43-4.22-9.43-9.43v-16.41c0-4.94,4.01-8.95,8.95-8.95Z"/>
  <path class="cls-1" d="M255.66,58.22h15.53c4.94,0,8.95,4.01,8.95,8.95v15.05c0,5.2-4.22,9.43-9.43,9.43h-14.58c-5.2,0-9.43-4.22-9.43-9.43v-15.05c0-4.94,4.01-8.95,8.95-8.95Z" transform="translate(60.81 -109.33) rotate(26.41)"/>
  <line class="cls-2" x1="175.45" y1="91.66" x2="175.45" y2="116.38"/>
  <line class="cls-2" x1="175.45" y1="339.06" x2="175.45" y2="363.79"/>
  <line class="cls-2" x1="311.51" y1="227.72" x2="286.79" y2="227.72"/>
  <line class="cls-2" x1="64.11" y1="227.72" x2="39.38" y2="227.72"/>
  <line class="cls-2" x1="271.66" y1="131.51" x2="254.17" y2="148.99"/>
  <line class="cls-2" x1="96.72" y1="306.45" x2="79.23" y2="323.94"/>
  <line class="cls-2" x1="271.66" y1="323.94" x2="254.17" y2="306.45"/>
  <line class="cls-2" x1="96.72" y1="148.99" x2="79.23" y2="131.51"/>
  <path class="cls-1" d="M79.95,58.22h14.58c5.2,0,9.43,4.22,9.43,9.43v15.05c0,4.94-4.01,8.95-8.95,8.95h-15.53c-4.94,0-8.95-4.01-8.95-8.95v-15.05c0-5.2,4.22-9.43,9.43-9.43Z" transform="translate(198.7 103.26) rotate(153.59)"/>
  <line class="cls-2" x1="175.45" y1="227.76" x2="210.16" y2="251.46"/>
  <circle class="cls-1" cx="175.45" cy="227.76" r="17.96"/>
</svg>